<?xml version="1.0" standalone="no"?>
<!DOCTYPE svg PUBLIC "-//W3C//DTD SVG 20010904//EN"
 "http://www.w3.org/TR/2001/REC-SVG-20010904/DTD/svg10.dtd">
<svg version="1.0" xmlns="http://www.w3.org/2000/svg"
 width="1100.000000pt" height="1100.000000pt" viewBox="0 0 1100.000000 1100.000000"
 preserveAspectRatio="xMidYMid meet">
<metadata>
Created by potrace 1.14, written by Peter Selinger 2001-2017
</metadata>
<g transform="translate(0.000000,1100.000000) scale(0.100000,-0.100000)"
fill="#000000" stroke="none">
<path d="M1431 9588 c5 -18 12 -49 15 -68 3 -19 12 -66 20 -105 8 -38 16 -83
19 -99 2 -15 7 -35 9 -45 3 -9 8 -32 12 -51 3 -19 7 -39 8 -45 2 -5 6 -28 10
-50 4 -22 10 -47 13 -55 3 -8 7 -29 8 -46 2 -17 6 -41 10 -53 3 -11 8 -33 11
-47 3 -15 12 -57 20 -93 8 -36 17 -82 20 -101 6 -43 12 -75 14 -75 2 0 8 -29
14 -65 3 -14 12 -59 20 -100 17 -79 25 -121 31 -157 2 -11 6 -30 9 -41 4 -11
8 -33 11 -48 2 -16 8 -49 14 -74 5 -25 12 -56 15 -70 2 -14 10 -50 16 -80 6
-30 13 -66 16 -80 4 -20 31 -151 59 -285 3 -10 7 -37 11 -59 3 -22 7 -43 9
-46 2 -3 6 -23 9 -45 4 -22 8 -47 11 -55 7 -23 31 -143 40 -195 3 -16 8 -41
11 -55 3 -14 10 -45 14 -70 5 -25 23 -112 40 -195 18 -82 34 -161 36 -175 7
-40 18 -95 28 -137 12 -54 16 -72 21 -106 3 -21 9 -47 15 -56 5 -10 7 -21 4
-23 -2 -3 3 -33 11 -67 9 -33 13 -66 10 -71 -3 -6 -1 -10 4 -10 6 0 11 -12 11
-27 0 -16 5 -46 11 -68 7 -22 13 -51 14 -65 3 -25 33 -176 39 -195 2 -5 4 -14
6 -20 1 -5 6 -15 12 -22 5 -7 18 -27 27 -45 34 -65 56 -103 61 -108 3 -3 11
-16 18 -29 8 -13 23 -39 33 -58 11 -19 25 -44 33 -56 28 -45 101 -172 101
-177 0 -3 8 -16 17 -30 19 -30 119 -204 161 -280 16 -30 38 -67 49 -82 10 -14
18 -31 18 -37 0 -6 4 -11 8 -11 4 0 13 -12 19 -28 7 -15 17 -34 22 -42 32 -49
141 -243 146 -260 3 -11 10 -20 15 -20 5 0 14 -16 21 -35 7 -19 16 -35 20 -35
4 0 9 -8 12 -17 4 -10 20 -40 37 -68 17 -27 33 -58 37 -67 3 -10 9 -18 14 -18
5 0 9 -5 9 -10 0 -6 40 -80 90 -165 49 -85 90 -157 90 -161 0 -3 8 -18 19 -32
10 -15 28 -43 38 -62 11 -19 46 -79 77 -132 31 -54 56 -101 56 -105 0 -3 6
-14 14 -22 7 -9 25 -36 38 -61 14 -25 51 -89 82 -142 31 -54 56 -102 56 -107
0 -5 3 -11 8 -13 10 -4 182 -305 182 -318 0 -5 4 -10 9 -10 5 0 13 -10 17 -22
4 -13 9 -25 13 -28 5 -4 17 -26 65 -115 6 -11 13 -22 16 -25 7 -7 29 -43 37
-60 6 -12 193 -340 223 -390 63 -105 170 -295 170 -301 0 -5 5 -9 10 -9 6 0
10 -5 10 -10 0 -6 11 -27 23 -48 24 -37 54 -90 110 -192 17 -30 34 -57 39 -58
4 -2 8 -8 8 -13 0 -4 22 -46 50 -93 27 -47 50 -88 50 -91 0 -4 13 -26 30 -50
16 -24 30 -47 30 -50 0 -4 8 -19 18 -33 11 -15 33 -52 49 -82 17 -30 71 -126
122 -213 50 -86 91 -162 91 -167 0 -6 5 -10 10 -10 6 0 10 -5 10 -10 0 -6 12
-29 27 -53 15 -23 34 -55 43 -72 9 -16 28 -51 43 -77 17 -27 24 -49 18 -52 -9
-6 16 -59 42 -91 4 -5 64 -102 134 -215 187 -305 194 -314 205 -299 7 12 123
198 153 247 6 10 24 40 40 67 16 28 35 56 42 63 7 7 13 19 13 26 0 7 9 21 20
31 11 10 17 21 15 25 -3 5 -1 10 3 12 16 6 84 127 78 137 -4 6 26 66 65 133
40 68 79 134 86 148 8 14 25 43 39 65 13 22 29 49 35 60 5 11 15 29 22 40 7
11 32 54 55 95 55 97 66 114 73 120 4 3 9 15 13 28 4 12 12 22 17 22 6 0 8 4
5 8 -3 5 4 18 14 30 11 12 20 25 20 29 0 4 22 44 48 88 26 44 51 87 56 95 4 8
18 33 31 55 14 22 29 50 34 62 5 11 15 24 20 28 13 8 15 55 2 55 -5 0 -11 8
-15 18 -6 19 -26 52 -79 135 -20 31 -37 62 -37 67 0 6 -3 10 -7 10 -5 0 -13
10 -19 23 -6 12 -55 94 -109 182 -107 174 -204 333 -266 435 -21 36 -43 72
-49 80 -5 8 -24 40 -42 70 -17 30 -34 57 -38 60 -4 4 -53 84 -135 222 -5 9
-52 85 -102 168 -51 84 -93 156 -93 161 0 5 -4 9 -8 9 -5 0 -15 12 -23 28 -12
23 -50 87 -106 178 -11 17 -33 53 -93 154 -9 14 -28 44 -43 67 -15 24 -27 47
-27 53 0 5 -4 10 -10 10 -5 0 -10 4 -10 10 0 8 -34 67 -70 120 -34 50 -130
214 -130 221 0 5 -4 9 -10 9 -5 0 -10 4 -10 9 0 6 -27 53 -60 106 -33 53 -60
100 -60 106 0 5 -4 9 -9 9 -5 0 -15 15 -22 33 -7 17 -21 41 -31 51 -10 11 -18
26 -18 33 0 7 -4 13 -9 13 -5 0 -11 8 -15 18 -3 9 -16 33 -28 53 -13 20 -43
70 -68 110 -24 41 -48 76 -52 77 -5 2 -8 9 -8 14 0 6 -21 45 -48 87 -26 42
-53 88 -61 104 -8 15 -18 27 -23 27 -4 0 -8 5 -8 10 0 6 -18 39 -40 74 -22 35
-40 66 -40 69 0 4 -8 16 -17 27 -10 11 -16 23 -15 27 2 3 0 9 -5 12 -10 6
-118 179 -137 218 -6 13 -14 23 -18 23 -5 0 -8 4 -8 9 0 6 -27 53 -60 106 -33
53 -60 100 -60 106 0 5 -4 9 -9 9 -5 0 -13 10 -17 23 -4 12 -10 24 -14 27 -7
5 -104 154 -139 213 -9 16 -26 41 -38 55 -13 15 -23 30 -23 34 0 4 -25 44 -55
89 -30 45 -55 84 -55 88 0 4 -8 16 -17 27 -10 11 -27 35 -37 54 -11 19 -22 37
-26 40 -3 3 -26 38 -50 78 -25 39 -48 72 -52 72 -5 0 -8 5 -8 11 0 6 -25 49
-55 94 -30 46 -55 87 -55 90 0 4 -6 13 -12 20 -27 30 -38 44 -38 50 0 3 -31
53 -70 111 -38 59 -70 111 -70 115 0 5 -3 9 -8 9 -4 0 -18 20 -31 45 -13 25
-28 45 -32 45 -5 0 -9 4 -9 10 0 5 -34 63 -77 127 -265 408 -264 407 -246 388
15 -15 106 -128 128 -159 11 -15 32 -42 48 -59 41 -48 47 -56 47 -62 0 -3 14
-19 30 -35 17 -16 30 -32 30 -35 0 -6 75 -101 90 -115 3 -3 28 -34 55 -70 28
-36 52 -67 55 -70 3 -3 57 -70 120 -150 63 -80 119 -150 125 -157 5 -6 20 -24
32 -40 12 -15 30 -38 40 -50 63 -77 81 -99 104 -134 15 -21 29 -35 33 -32 3 4
6 -1 6 -10 0 -9 6 -20 13 -24 7 -4 26 -26 43 -48 16 -22 34 -46 41 -55 7 -8
52 -64 100 -125 48 -60 92 -115 98 -122 5 -7 15 -18 20 -25 13 -16 156 -198
172 -218 7 -8 32 -40 57 -71 26 -31 46 -61 46 -67 0 -6 4 -12 8 -14 9 -3 327
-507 355 -562 10 -20 23 -36 28 -36 5 0 9 -4 9 -10 0 -5 20 -41 45 -80 25 -39
45 -75 45 -80 0 -6 4 -10 9 -10 5 0 13 -9 16 -20 3 -11 12 -26 19 -32 11 -12
69 -106 91 -149 5 -10 13 -19 17 -19 5 0 8 -4 8 -9 0 -5 31 -58 70 -118 38
-59 84 -134 102 -165 18 -32 36 -58 40 -58 5 0 8 -5 8 -10 0 -6 8 -23 19 -38
48 -71 113 -175 121 -197 5 -14 14 -25 20 -25 5 0 10 -4 10 -10 0 -5 25 -48
55 -95 30 -46 55 -89 55 -95 0 -5 5 -10 10 -10 6 0 10 -6 10 -14 0 -7 7 -19
15 -26 8 -7 21 -24 28 -39 8 -14 36 -62 64 -106 27 -44 56 -91 64 -105 8 -14
16 -27 19 -30 8 -8 123 -192 139 -222 8 -16 18 -28 23 -28 4 0 8 -5 8 -10 0
-6 15 -34 34 -63 18 -28 47 -74 64 -102 17 -27 36 -55 42 -62 5 -7 10 -15 10
-18 0 -3 8 -18 19 -33 10 -15 45 -70 77 -122 33 -52 62 -96 67 -98 4 -2 7 -8
7 -13 0 -11 102 -173 112 -177 5 -2 8 -8 8 -14 0 -5 14 -29 30 -53 17 -24 30
-48 30 -54 0 -6 3 -11 8 -11 4 0 12 -9 17 -20 6 -10 37 -62 70 -115 33 -53 67
-107 75 -120 104 -167 144 -225 150 -218 13 13 110 185 110 194 0 5 4 9 9 9 5
0 11 8 14 18 3 9 22 44 42 77 19 33 45 79 57 103 12 23 26 42 30 42 4 0 8 6 8
14 0 8 6 21 13 28 6 8 24 36 38 63 23 46 146 260 169 295 5 8 22 39 37 68 15
28 31 52 35 52 4 0 8 5 8 11 0 6 23 49 50 96 28 47 50 89 50 93 0 5 3 10 8 12
4 2 14 17 23 33 9 17 49 86 89 155 40 69 81 141 92 160 67 117 102 178 116
200 9 14 17 27 17 30 0 3 8 16 17 30 31 49 168 290 168 296 0 3 9 18 19 33 11
15 69 112 128 217 60 104 116 200 124 214 8 14 16 27 19 30 3 3 19 31 35 62
17 32 34 58 39 58 5 0 6 3 3 6 -4 4 2 19 13 34 11 16 20 31 20 34 0 3 15 29
33 58 19 29 37 60 40 68 4 8 17 31 28 50 12 19 31 53 42 75 12 22 24 42 27 45
11 11 100 170 100 179 0 6 6 14 14 18 8 4 15 10 16 13 5 29 14 50 19 50 4 0
18 23 31 50 13 28 27 50 32 50 4 0 8 5 8 11 0 6 20 45 45 86 25 40 45 76 45
79 0 3 15 28 33 57 32 50 61 117 51 117 -3 0 -1 8 5 18 5 9 11 36 15 60 3 24
10 60 15 80 5 20 12 51 14 67 3 17 19 100 37 185 17 85 34 166 37 180 2 14 13
68 24 120 29 141 47 232 52 260 3 14 8 36 11 50 3 14 8 36 10 50 3 14 7 36 10
50 3 14 9 41 12 60 4 19 9 44 11 55 10 44 24 111 28 135 3 14 16 79 30 145 14
66 27 129 29 140 2 11 11 56 20 100 9 44 18 91 21 105 3 14 8 39 11 55 4 17 8
39 9 50 2 11 4 20 5 20 2 0 5 13 13 60 9 45 17 83 33 160 9 39 17 85 19 103 2
18 6 36 9 40 2 4 7 28 11 52 3 25 9 54 12 65 3 11 8 29 9 40 2 11 8 38 13 60
5 22 12 54 14 70 3 17 8 41 11 55 3 14 8 36 10 50 2 14 9 45 15 70 5 25 12 59
15 75 14 72 18 93 28 135 5 25 12 59 15 75 7 42 11 60 13 60 1 0 3 9 4 20 2
16 29 147 62 310 2 11 7 34 10 50 3 17 9 48 14 70 14 60 13 62 -25 25 -19 -18
-32 -37 -29 -42 3 -5 1 -7 -4 -6 -6 2 -83 -71 -171 -162 -346 -354 -694 -710
-806 -825 -139 -143 -653 -670 -780 -800 -49 -50 -220 -225 -380 -389 -159
-164 -335 -344 -390 -400 -55 -56 -235 -241 -400 -410 -165 -170 -372 -382
-460 -472 l-160 -163 -499 1 -498 0 -99 102 c-54 55 -167 171 -251 257 -84 86
-259 266 -388 399 -129 133 -288 297 -354 364 -65 66 -220 226 -345 354 -124
129 -288 297 -363 374 -76 77 -138 145 -138 151 0 6 -2 8 -5 5 -3 -3 -40 31
-83 75 -42 45 -113 118 -157 163 -44 45 -195 200 -335 344 -140 144 -298 306
-350 360 -52 54 -210 216 -350 360 -317 326 -380 390 -385 390 -2 0 1 -15 6
-32z"/>
</g>
</svg>
